<svg aria-hidden="true" style="position: absolute; width: 0; height: 0; overflow: hidden;" version="1.1" xmlns="http://www.w3.org/2000/svg" xmlns:xlink="http://www.w3.org/1999/xlink">
<defs>
<symbol id="icon-instagram" viewBox="0 0 32 32">
<path fill="#fff" style="fill: var(--color1, #fff)" d="M16 7.985c-1.435 0-2.778 0.37-4.028 1.111-1.204 0.694-2.176 1.667-2.917 2.917-0.694 1.204-1.042 2.523-1.042 3.958s0.347 2.778 1.042 4.028c0.741 1.204 1.713 2.176 2.917 2.917 1.25 0.695 2.593 1.042 4.028 1.042s2.755-0.347 3.958-1.042c1.25-0.741 2.222-1.713 2.917-2.917 0.741-1.25 1.111-2.593 1.111-4.028s-0.37-2.755-1.111-3.958c-0.694-1.25-1.667-2.222-2.917-2.917-1.204-0.741-2.523-1.111-3.958-1.111zM16 21.18c-1.435 0-2.662-0.509-3.681-1.528s-1.528-2.245-1.528-3.681c0-1.435 0.509-2.662 1.528-3.681s2.245-1.528 3.681-1.528c1.435 0 2.662 0.509 3.681 1.528s1.528 2.245 1.528 3.681c0 1.435-0.509 2.662-1.528 3.681s-2.245 1.528-3.681 1.528zM26.208 7.638c-0.046 0.509-0.255 0.949-0.625 1.319-0.324 0.37-0.741 0.556-1.25 0.556s-0.949-0.185-1.319-0.556c-0.37-0.37-0.556-0.81-0.556-1.319s0.185-0.949 0.556-1.319c0.37-0.37 0.81-0.556 1.319-0.556s0.949 0.185 1.319 0.556c0.37 0.37 0.556 0.81 0.556 1.319zM31.486 9.513c-0.092-1.343-0.301-2.5-0.625-3.472-0.417-1.157-1.065-2.153-1.945-2.986-0.833-0.88-1.829-1.528-2.986-1.944-0.972-0.324-2.13-0.509-3.472-0.556-1.296-0.093-3.449-0.139-6.458-0.139s-5.185 0.046-6.528 0.139c-1.296 0.046-2.431 0.231-3.403 0.556-1.157 0.417-2.176 1.065-3.056 1.944-0.833 0.833-1.458 1.829-1.875 2.986-0.324 0.972-0.532 2.13-0.625 3.472-0.046 1.296-0.069 3.449-0.069 6.458s0.023 5.185 0.069 6.528c0.093 1.296 0.301 2.43 0.625 3.403 0.417 1.157 1.042 2.176 1.875 3.056 0.88 0.833 1.898 1.435 3.056 1.805 0.972 0.37 2.107 0.579 3.403 0.625 1.343 0.092 3.519 0.139 6.528 0.139s5.162-0.046 6.458-0.139c1.343-0.046 2.5-0.231 3.472-0.556 1.157-0.417 2.153-1.042 2.986-1.875 0.88-0.88 1.528-1.898 1.945-3.056 0.324-0.972 0.509-2.107 0.556-3.403 0.093-1.343 0.139-3.519 0.139-6.528s-0.023-5.162-0.070-6.458zM28.153 25.138c-0.556 1.389-1.551 2.384-2.986 2.986-0.741 0.278-1.991 0.463-3.75 0.556-0.972 0.046-2.407 0.070-4.306 0.070h-2.222c-1.852 0-3.287-0.023-4.306-0.070-1.713-0.093-2.963-0.278-3.75-0.556-1.389-0.556-2.384-1.551-2.986-2.986-0.278-0.787-0.463-2.037-0.556-3.75-0.046-1.019-0.069-2.454-0.069-4.306v-2.222c0-1.852 0.023-3.287 0.069-4.306 0.093-1.759 0.278-3.009 0.556-3.75 0.556-1.435 1.551-2.431 2.986-2.986 0.787-0.278 2.037-0.463 3.75-0.556 1.019-0.046 2.454-0.069 4.306-0.069h2.222c1.852 0 3.287 0.023 4.306 0.069 1.759 0.093 3.009 0.278 3.75 0.556 1.435 0.556 2.431 1.551 2.986 2.986 0.278 0.741 0.463 1.991 0.556 3.75 0.046 0.972 0.070 2.407 0.070 4.306v2.222c0 1.852-0.023 3.287-0.070 4.306-0.092 1.713-0.278 2.963-0.556 3.75z"></path>
</symbol>
<symbol id="icon-twitter" viewBox="0 0 36 32">
<path fill="#fff" style="fill: var(--color1, #fff)" d="M31.875 8.749c0.046 0.185 0.070 0.486 0.070 0.903 0 3.333-0.81 6.551-2.431 9.653-1.667 3.287-4.005 5.903-7.014 7.847-3.287 2.176-7.060 3.264-11.319 3.264-4.074 0-7.801-1.088-11.181-3.264 0.509 0.046 1.088 0.070 1.736 0.070 3.38 0 6.412-1.042 9.097-3.125-1.62 0-3.056-0.463-4.306-1.389-1.204-0.972-2.037-2.176-2.5-3.611 0.463 0.046 0.903 0.070 1.319 0.070 0.648 0 1.296-0.070 1.944-0.208-1.667-0.37-3.056-1.227-4.167-2.57s-1.667-2.87-1.667-4.583v-0.139c1.019 0.602 2.107 0.926 3.264 0.972-0.972-0.694-1.759-1.574-2.361-2.639s-0.903-2.222-0.903-3.472c0-1.296 0.347-2.523 1.042-3.681 1.806 2.269 4.005 4.074 6.597 5.417 2.639 1.343 5.44 2.083 8.403 2.222-0.093-0.556-0.139-1.111-0.139-1.667 0-1.296 0.324-2.5 0.972-3.611 0.648-1.157 1.528-2.060 2.639-2.708s2.315-0.972 3.611-0.972c1.065 0 2.037 0.208 2.917 0.625 0.926 0.417 1.736 0.972 2.43 1.667 1.667-0.324 3.218-0.903 4.653-1.736-0.556 1.713-1.62 3.056-3.195 4.028 1.389-0.185 2.778-0.579 4.167-1.181-1.019 1.481-2.245 2.755-3.681 3.819z"></path>
</symbol>
<symbol id="icon-facebook" viewBox="0 0 18 32">
<path fill="#fff" style="fill: var(--color1, #fff)" d="M5.869 31.975v-13.631h-4.583v-5.417h4.583v-4.286c0-2.262 0.635-4.008 1.905-5.238 1.27-1.27 2.956-1.905 5.060-1.905 1.706 0 3.095 0.079 4.167 0.238v4.821h-2.857c-1.071 0-1.806 0.238-2.202 0.714-0.317 0.397-0.476 1.032-0.476 1.905v3.75h5.060l-0.714 5.417h-4.345v13.631h-5.595z"></path>
</symbol>
<symbol id="icon-logo" viewBox="0 0 32 32">
<path fill="#ffd600" style="fill: var(--color2, #ffd600)" d="M31.219 14.737c-0.3 0-1.441 0.421-2.041 0.662-0.060-0.241-0.3-0.421-0.6-0.421s-0.601 0.18-0.601 0.421l-1.141-0.18c-0.18-2.466-1.141-4.632-2.642-6.376l0.66-0.962c0.18 0.12 0.54 0.12 0.72-0.12 0.24-0.241 0.3-0.541 0.12-0.722 0.601-0.241 1.741-0.722 1.921-0.962 0.24-0.301 0.060-0.902-0.36-1.383-0.48-0.421-1.081-0.601-1.381-0.361-0.24 0.18-0.721 1.323-0.961 1.925-0.18-0.12-0.54-0.060-0.72 0.12-0.24 0.241-0.3 0.541-0.12 0.722l-0.961 0.662c-1.741-1.504-3.962-2.466-6.364-2.647l-0.18-1.143c0.24-0.060 0.42-0.301 0.42-0.602s-0.18-0.541-0.42-0.602c0.24-0.602 0.66-1.744 0.66-2.045-0.060-0.421-0.6-0.722-1.261-0.722s-1.201 0.301-1.261 0.722c0 0.301 0.42 1.444 0.66 2.045-0.24 0.060-0.42 0.301-0.42 0.602s0.18 0.602 0.42 0.602l-0.18 1.143c-2.462 0.18-4.623 1.143-6.364 2.647l-0.961-0.662c0.12-0.18 0.12-0.541-0.12-0.722-0.24-0.241-0.54-0.301-0.72-0.12-0.24-0.601-0.72-1.684-0.961-1.925-0.3-0.241-0.901-0.060-1.321 0.421-0.48 0.421-0.66 1.023-0.42 1.383 0.18 0.241 1.321 0.722 1.921 0.962-0.12 0.18-0.060 0.541 0.12 0.722 0.24 0.241 0.54 0.301 0.72 0.12l0.66 0.962c-1.501 1.744-2.462 3.97-2.642 6.376l-1.141 0.18c-0.060-0.241-0.3-0.421-0.6-0.421s-0.54 0.18-0.6 0.421c-0.6-0.241-1.741-0.662-2.041-0.662-0.42 0.060-0.72 0.601-0.72 1.263s0.3 1.203 0.72 1.263c0.3 0 1.441-0.421 2.041-0.662 0.060 0.241 0.3 0.421 0.6 0.421s0.6-0.18 0.6-0.421l1.141 0.18c0.18 2.466 1.141 4.632 2.642 6.376l-0.6 0.902c-0.18-0.12-0.54-0.12-0.72 0.12-0.24 0.241-0.3 0.541-0.12 0.722-0.6 0.241-1.681 0.722-1.921 0.963-0.24 0.301-0.060 0.902 0.36 1.383 0.48 0.481 1.081 0.662 1.381 0.361 0.24-0.18 0.72-1.323 0.961-1.925 0.18 0.12 0.54 0.060 0.72-0.12 0.24-0.241 0.3-0.541 0.12-0.722l0.961-0.662c1.741 1.504 3.962 2.466 6.364 2.647l0.18 1.143c-0.24 0.060-0.42 0.301-0.42 0.602s0.18 0.541 0.42 0.601c-0.24 0.602-0.66 1.744-0.66 2.045 0.060 0.421 0.6 0.722 1.261 0.722s1.201-0.301 1.261-0.722c0-0.301-0.42-1.444-0.66-2.045 0.24-0.060 0.42-0.301 0.42-0.601s-0.18-0.602-0.42-0.602l0.18-1.143c2.462-0.18 4.623-1.143 6.364-2.647l0.961 0.662c-0.12 0.18-0.12 0.541 0.12 0.722 0.24 0.241 0.54 0.301 0.72 0.12 0.24 0.601 0.72 1.744 0.961 1.925 0.3 0.241 0.9 0.060 1.381-0.361 0.48-0.481 0.66-1.083 0.36-1.383-0.18-0.241-1.321-0.722-1.921-0.963 0.12-0.18 0.060-0.541-0.12-0.722-0.24-0.241-0.54-0.301-0.72-0.12l-0.66-0.962c1.501-1.744 2.462-3.97 2.642-6.376l1.141-0.18c0.060 0.241 0.3 0.421 0.6 0.421s0.54-0.18 0.6-0.421c0.601 0.241 1.741 0.662 2.041 0.662 0.42-0.060 0.72-0.602 0.72-1.263-0.12-0.601-0.42-1.203-0.781-1.263zM6.604 16.421c-0.24 0-0.42-0.18-0.42-0.421s0.18-0.421 0.42-0.421c0.24 0 0.42 0.18 0.42 0.421s-0.18 0.421-0.42 0.421zM22.274 9.083c0.18-0.18 0.42-0.18 0.6 0s0.18 0.421 0 0.601c-0.18 0.18-0.42 0.18-0.6 0-0.12-0.18-0.12-0.421 0-0.601zM15.97 6.256c0.24 0 0.42 0.18 0.42 0.421s-0.18 0.421-0.42 0.421c-0.24 0-0.42-0.18-0.42-0.421s0.18-0.421 0.42-0.421zM9.066 9.083c0.18-0.18 0.42-0.18 0.6 0s0.18 0.421 0 0.601c-0.18 0.18-0.42 0.18-0.6 0-0.12-0.18-0.12-0.421 0-0.601zM10.146 10.827l0.48 0.481c0.12 0.12 0.24 0.12 0.36 0.060l0.66 0.662c-0.18 0.421 0 1.083 0.54 1.624 0.6 0.601 1.441 0.782 1.801 0.421-0.48 0.481-0.78 1.143-0.78 1.865v-0.18h-2.341c-0.060 0-0.12-0.060-0.12-0.18s0.060-0.18 0.12-0.18h2.462v-0.060c0-0.18-0.18-0.361-0.36-0.361h-2.341c-0.12 0-0.42 0.361-0.6 0.662h-0.72c-0.060-0.12-0.18-0.241-0.3-0.241h-0.78c0.12-1.684 0.78-3.308 1.921-4.571zM9.666 22.917c-0.18 0.18-0.42 0.18-0.6 0s-0.18-0.421 0-0.602c0.18-0.18 0.42-0.18 0.6 0s0.18 0.421 0 0.602zM10.146 21.173c-1.141-1.263-1.861-2.947-1.981-4.752h0.78c0.12 0 0.3-0.12 0.3-0.241h0.66c0.18 0.301 0.48 0.722 0.6 0.722h2.341c0.18 0 0.36-0.12 0.36-0.301v-0.12h-2.341c-0.060 0-0.12-0.060-0.12-0.18s0.060-0.18 0.12-0.18h2.462v-0.18c0 0.722 0.3 1.383 0.78 1.865-0.36-0.361-1.201-0.18-1.801 0.421-0.54 0.541-0.72 1.203-0.54 1.624l-0.66 0.662c-0.12-0.060-0.3-0.060-0.36 0.060l-0.6 0.602zM15.97 25.805c-0.24 0-0.42-0.18-0.42-0.421s0.18-0.421 0.42-0.421c0.24 0 0.42 0.18 0.42 0.421s-0.18 0.421-0.42 0.421zM22.874 22.917c-0.18 0.18-0.42 0.18-0.6 0s-0.18-0.421 0-0.602c0.18-0.18 0.42-0.18 0.6 0s0.18 0.421 0 0.602zM21.794 21.173l-0.48-0.481c-0.12-0.12-0.24-0.12-0.36-0.060l-0.66-0.662c0.18-0.421-0-1.083-0.54-1.624-0.6-0.602-1.441-0.782-1.801-0.421s-0.18 1.203 0.42 1.805c0.54 0.541 1.201 0.722 1.621 0.541l0.66 0.662c-0.060 0.12-0.060 0.301 0.060 0.361l0.48 0.481c-1.261 1.143-2.882 1.865-4.683 1.985v-0.782c0-0.12-0.12-0.301-0.24-0.301v-0.722c0.24-0.18 0.66-0.481 0.66-0.602v-2.346c0-0.18-0.18-0.361-0.36-0.361h-0.060v2.466c0 0.060-0.060 0.12-0.18 0.12s-0.18-0.060-0.18-0.12v-2.406h-0.36v2.406c0 0.060-0.060 0.12-0.18 0.12s-0.18-0.060-0.18-0.12v-2.406h-0.12c-0.18 0-0.3 0.18-0.3 0.361v2.346c0 0.12 0.42 0.421 0.72 0.601v0.662c-0.12 0.060-0.24 0.18-0.24 0.301v0.782c-1.801-0.12-3.482-0.842-4.743-1.985l0.48-0.481c0.12-0.12 0.12-0.241 0.060-0.361l0.66-0.662c0.42 0.18 1.081 0 1.621-0.541 0.6-0.602 0.78-1.444 0.42-1.805 0.48 0.481 1.141 0.782 1.861 0.782 1.501 0 2.642-1.203 2.642-2.647 0-1.504-1.201-2.647-2.642-2.647-0.72 0-1.381 0.301-1.861 0.782 0.36-0.361 0.18-1.203-0.42-1.805-0.54-0.541-1.201-0.722-1.621-0.541l-0.66-0.662c0.060-0.12 0.060-0.301-0.060-0.361l-0.48-0.481c1.261-1.143 2.942-1.865 4.743-1.985v0.782c0 0.12 0.12 0.301 0.24 0.301v0.662c-0.3 0.18-0.72 0.481-0.72 0.601v2.346c0 0.18 0.12 0.361 0.3 0.361h0.12v-2.526c0-0.060 0.060-0.12 0.18-0.12s0.18 0.060 0.18 0.12v2.466h0.36v-2.466c0-0.060 0.060-0.12 0.18-0.12s0.18 0.060 0.18 0.12v2.466h0.060c0.18 0 0.36-0.18 0.36-0.361v-2.346c0-0.12-0.36-0.421-0.66-0.601v-0.722c0.12-0.060 0.24-0.18 0.24-0.301v-0.782c1.801 0.12 3.422 0.842 4.683 1.925l-0.48 0.481c-0.12 0.12-0.12 0.241-0.060 0.361l-0.66 0.662c-0.42-0.18-1.081 0-1.621 0.541-0.6 0.601-0.78 1.444-0.42 1.804s1.201 0.18 1.801-0.421c0.54-0.541 0.72-1.203 0.54-1.624l0.66-0.662c0.12 0.060 0.3 0.060 0.36-0.060l0.48-0.481c1.141 1.263 1.861 2.887 1.981 4.692h-0.781c-0.12 0-0.3 0.12-0.3 0.241h-0.72c-0.18-0.241-0.48-0.662-0.6-0.662h-2.342c-0.18 0-0.36 0.18-0.36 0.361v0.060h2.401c0.060 0 0.12 0.060 0.12 0.18s-0.060 0.18-0.12 0.18h-2.401v0.301h2.401c0.060 0 0.12 0.060 0.12 0.18s-0.060 0.18-0.12 0.18h-2.401v0.12c0 0.18 0.18 0.301 0.36 0.301h2.342c0.12 0 0.42-0.421 0.6-0.722h0.66c0.060 0.12 0.18 0.241 0.3 0.241h0.78c-0.060 1.865-0.78 3.489-1.921 4.752zM14.289 16c0-0.902 0.72-1.684 1.681-1.684 0.901 0 1.681 0.722 1.681 1.684 0 0.902-0.72 1.684-1.681 1.684-0.901 0-1.681-0.722-1.681-1.684zM25.336 16.421c-0.24 0-0.42-0.18-0.42-0.421s0.18-0.421 0.42-0.421c0.24 0 0.42 0.18 0.42 0.421s-0.18 0.421-0.42 0.421z"></path>
</symbol>
<symbol id="icon-down-btn" viewBox="0 0 32 32">
<path fill="none" stroke="#fff" style="stroke: var(--color1, #fff)" stroke-linejoin="miter" stroke-linecap="butt" stroke-miterlimit="4" stroke-width="0.5161" d="M31.484 16c0 8.552-6.932 15.484-15.484 15.484s-15.484-6.932-15.484-15.484c0-8.552 6.932-15.484 15.484-15.484s15.484 6.932 15.484 15.484z"></path>
<path fill="#fff" style="fill: var(--color1, #fff)" d="M26.323 16c0 5.701-4.622 10.323-10.323 10.323s-10.323-4.622-10.323-10.323c0-5.701 4.622-10.323 10.323-10.323s10.323 4.622 10.323 10.323z"></path>
<path fill="#333" style="fill: var(--color2, #333)" d="M15.657 18.194l-2.742-2.742c-0.094-0.094-0.141-0.208-0.141-0.343s0.047-0.249 0.141-0.343l0.464-0.444c0.094-0.094 0.208-0.141 0.343-0.141s0.249 0.047 0.343 0.141l1.935 1.935 1.935-1.935c0.094-0.094 0.208-0.141 0.343-0.141s0.249 0.047 0.343 0.141l0.464 0.444c0.094 0.094 0.141 0.208 0.141 0.343s-0.047 0.249-0.141 0.343l-2.742 2.742c-0.094 0.094-0.208 0.141-0.343 0.141s-0.249-0.047-0.343-0.141z"></path>
<symbol id="icon-about-square" viewBox="0 0 31 32">
<path fill="none" stroke="#e8c300" style="stroke: var(--color1, #e8c300)" stroke-linejoin="miter" stroke-linecap="butt" stroke-miterlimit="4" stroke-width="2" d="M7.467 7.111h17.067c0.196 0 0.356 0.159 0.356 0.356v17.067c0 0.196-0.159 0.356-0.356 0.356h-17.067c-0.196 0-0.356-0.159-0.356-0.356v-17.067c0-0.196 0.159-0.356 0.356-0.356z"></path>
</symbol>
</symbol>
</defs>
</svg>
